<?xml version="1.0" encoding="utf-8"?>
<!-- Generator: Adobe Illustrator 24.0.0, SVG Export Plug-In . SVG Version: 6.00 Build 0)  -->
<svg version="1.1" id="レイヤー_1" xmlns="http://www.w3.org/2000/svg" xmlns:xlink="http://www.w3.org/1999/xlink" x="0px"
	 y="0px" viewBox="0 0 12.4 12.4" style="enable-background:new 0 0 12.4 12.4;" xml:space="preserve">
<g>
	<g id="_____1_0_Layer0_0_FILL">
		<path d="M4.9,0L4.9,0C3.6,0,2.4,0.5,1.4,1.4C0.5,2.4,0,3.5,0,4.8c0,1.4,0.5,2.5,1.4,3.5c1,1,2.1,1.4,3.5,1.4
			c0.9,0,1.7-0.2,2.5-0.6l3.1,3c0.1,0.1,0.2,0.2,0.4,0.2s0.3-0.1,0.4-0.2l1-0.9c0.1-0.1,0.1-0.3,0.1-0.5c0-0.1,0-0.3-0.1-0.4
			L9.1,7.4c0.4-0.7,0.7-1.5,0.7-2.5c0-1.3-0.5-2.5-1.4-3.4C7.5,0.5,6.3,0,4.9,0 M4.9,1.3c1,0,1.9,0.4,2.6,1.1s1,1.6,1,2.6
			S8.1,6.9,7.4,7.6s-1.6,1-2.6,1S3,8.2,2.3,7.5s-1-1.6-1-2.7c0-1,0.4-1.8,1.1-2.6C3.1,1.6,3.9,1.3,4.9,1.3L4.9,1.3z"/>
	</g>
</g>
</svg>
